/* XPM */
static char *result[] = {
/* columns rows colors chars-per-pixel */
"48 48 24 1 ",
"  c black",
". c #3D3411",
"X c #352D2A",
"o c #574318",
"O c #574B18",
"+ c #7C6022",
"@ c #7C6B23",
"# c #7C743D",
"$ c gray34",
"% c #7C7C7C",
"& c #EA323C",
"* c #8F6E21",
"= c #B26C2F",
"- c #B27B2C",
"; c #B28A30",
": c #B29932",
"> c #C39C3A",
", c #FFB03F",
"< c #B1A657",
"1 c #FFC545",
"2 c #FFDB48",
"3 c #FDEE7D",
"4 c #F8FF8A",
"5 c white",
/* pixels */
"3222222,,1112222355222222,,,111222222233222222,,",
"22222,,,,11  2355522222,,,1111122222233322222,,1",
"222,,,,1111  3352222,,,,,111112223333332222,,,11",
",,,,,,111  44  22,,  ,,11122222333333222222,,,11",
",11111111  44  ,,,,  111222222333322222222,,,111",
"1111222    44  ,1  44      22332222222,,,,,,1112",
"1222222    44  11  44      3332222,,,,,,,,,11112",
"2333333  XX44      44  XXXX  22,,,,,111111155122",
"3222222  XX44      44  XXXX  2,,,122111115552222",
"3    ,2  XX****XX4444XX==XX  ,,,1111111555222233",
",    ,,  XX****XX4444XX==XX  ,111111111122222332",
",  44    **2222**44XX>>==XX  1111111122222223322",
"1  44    **2222**44XX>>==XX  11111122222223332,,",
"112  4444********44XX>>XX  1111122112222233222,,",
"112  4444********44XX>>XX  111221221122333222,11",
"2    XXXX**2222**33>>44XX  11      111333222,,11",
"2    XXXX**2222**33>>44XX  22      22332222,,111",
"2  4455  44****335555>>44    4444  3332222,,1111",
"2  4455  44****335555>>44    4444  322222,,,1111",
",2,  XX  44444455  5555>>4444XX  33    22,,11112",
"1,,  XX  44444455  5555>>4444XX  22    ,,,,11123",
"11111  4444443355  554444>>XX  22  ====  1112233",
"11111  4444443355  554444>>XX  ,,  ====  1122332",
"1111112  4444443333>>44XX444444  ====  ==  55322",
"1112222  4444443333>>44XX444444  ====  ==  53322",
"11222  44XXXX&&&&XX44XX          ====  ==  3322,",
"12252  44XXXX&&&&XX44XX          ====  ==  322,,",
"225  44444444XXXX44XX    ,,111111    ==  33222,1",
"233  44444444XXXX44XX    11221112    ==  3222,11",
"332  XX44      44XXXX4444  2111  44==  33222,,12",
"322  XX44      44XXXX4444  1112  44==  2::--;122",
"2,,,,    ,,,,  44444444XX      4444  222---;;:22",
",,,,,    5555  44444444XX      4444  :---@+++:22",
",1111111111  XXXX44XXXXXX444444    --,::;+++@:22",
",1111111111  XXXX44XXXXXX444444    @;;;;+++:::22",
"111111221  ====    44XX44      ,;;+++++++@@:<<33",
"11112111;  ====    44XX44      1;+o@OO$%%##<::22",
"11122222:::    ::::  ====  ;;:;;@@O$#%%@@::::222",
"1,,,,,,2:::    :::<  ====  ;++:@@.$##:::::222,,,",
",,,222222:<<<<<<<  ====  -;+@@@O@#<:::222,,,,,11",
"1,2222233332:::::  ====  ;+@:@::#<::22,,,,,,,111",
",,2222332222222:---    ;;+@::::<3222,,,,,1111122",
"222253222222,,,,,,-    ;;:::::<322,,,,,111111222",
"22232222,,,,,,,111;;;;;;:::223322,,,,11111222222",
"22322,,,,,,11,11111111223333332,,,,,112222222222",
"22322,,,1,11111111112333322222,,,,11122222222222",
"2322,,,111112222222233222222,,,,1111222222222222",
"2222,,,22112222222223222222,,,,11222222222222222"
};
