/* XPM */
static char *result[] = {
/* columns rows colors chars-per-pixel */
"48 48 25 1 ",
"  c black",
". c #000C00",
"X c #082100",
"o c #352D2A",
"O c #026602",
"+ c #7C561F",
"@ c #7C6B23",
"# c #7C743D",
"$ c #7C7C7C",
"% c #B27B2C",
"& c #AE6D34",
"* c #028302",
"= c #05E305",
"- c #B28A30",
"; c #B29932",
": c #FFB03F",
"> c #949642",
", c #B1A657",
"< c #C7A85F",
"1 c #FFC545",
"2 c #FFDB48",
"3 c #FDEE7D",
"4 c #B2B2B2",
"5 c #F09884",
"6 c white",
/* pixels */
"3222222::1112222366222222:::111222222233222222::",
"22222::::11122366622222:::1111122222233322222::1",
"222::::1111223362222:::::111112223333332222:::11",
"::::::11112232222::::::11122222333333222222:::11",
":11111111133222::::::111222222333322222222:::111",
"11112222233222::11:1111222222332222222::::::1112",
"1222222333222::1111111222223332222:::::::::11112",
"23333333222:::11111122222233222:::::111111166122",
"3222222222::112222222222333222:::122111116662222",
"3::::XX2:X1112XXX222233332222:::1111111666222233",
":::::XOXX=X12XO==X33332222XX::X1111XXX1122222332",
":11..oOOo==XX**oooX332222:XOXX=X11XO==X222223322",
"11.***ooOo=oO*ooOOOX22:2..oOOo==XX**oooX223332::",
"112..***ooOOOoOOOoX22::.***ooOo=oO*ooOOOX33222::",
"11222.O**ooOoOOooooXX:11..***ooOOOoOOOoX33222:11",
"22223...OOoOOooOOO***X1111.O**ooOoOOooooXX22::11",
"2233.&<ooOOOo**OOXXXX11112...OOoOOooOOO***X::111",
"233.&<<<ooooO*oo.11111122.&<ooOOOo**OOXXXX::1111",
"222:.<<o<33:oo33<.222222.&<<<ooooO*oo.222:::1111",
":2::.<o<3<6<o3<<3&.222263.<<o<333oo33<.22::11112",
"1::.<<o336 6&36 33.666663.<o<3<6<o3<<3&.:::11123",
"1111.o333<6<&33335.63233.<<o336 6&36 33.:1112233",
"11111..55653o<355<.363222.o333<6<&33335.11122332",
"1111112.55<o&o<<&.33222222..55653o<355<.11266322",
"11122222..o&&&...32222222222.55<o&o<<&.122263322",
"1122222222.&&.333222222222:::..o&&&...112223322:",
"1226233333.<<.32222:::2::::::11.&&.11112223322::",
"2263333333.&&.222::::::::::1111.<<.21122233222:1",
"2333322222.<<.2::..:..111112211.&&.2222233222:11",
"332222222.<&&.::.OO.OO.11122111.<<.333..3..2::12",
"322:22::.<<<<<.11.OoO.11111111.<&&.32.OO.OO.1122",
"2:::::::.&<<<&..11.&>>.222222.<<<<<.22.OoO.11222",
":::::::.<<&&&<<o..&o>>.222233.&<<<&..2:.&>>.1222",
":111111.&<<<<ooo&&.>>o.22333.<<&&&<<o..&o>>.2222",
":11111.&o&&&o&&&o.2...223322.&<<<<ooo&&.>>o.2222",
"111111.6&o<o<<<&.;;22223322.&o&&&o&&&o.1...23333",
"1111211....o&&&<.@;;223322:.6&o<o<<<&.$44,,,2222",
"11122222;;;.6&6o.@;;,332:::1....o&&&<.$@@;;22222",
"1::::::222;@....@@#,322:::111122.6&6o.@@;;222::%",
":::2222222,,######,;;;2:::112222;....@@@;%%:::1-",
"1:22222333322;;;;;;;%%%::11;;222,,;@@@+%%%%%:1--",
"::22223322222222::%%%%%--12;;22332;;%%%%%----1;;",
"222263222222::::::%%%%---2;;;;3322:::::1-----;;;",
"22232222:::::::1111-----;;;;;,322::::11111;;;;;;",
"22322::::::11:111111--;;,,,,,,;%::::11222222;;;;",
"22322:::1:11111111112,,,,;;;;;%%::11122222222;;;",
"2322:::111112222222;,,;;;;;;%:%:111122222222;;;;",
"2222:::22112222222;;,;;;;;;%%::112222222;;;;;;;;"
};
