/* XPM */
static char *result[] = {
/* columns rows colors chars-per-pixel */
"48 48 14 1 ",
"  c #0E3A77",
". c #E88A30",
"X c #F49737",
"o c #FF9F38",
"O c #E5A039",
"+ c #FFB03F",
"@ c #FFB440",
"# c #FFC545",
"$ c #FFDB48",
"% c #134997",
"& c #134FA3",
"* c #1C74EE",
"= c #F8FF8A",
"- c white",
/* pixels */
"&&   &&&&&&&&&&&&        &&&&& &&&&&&&&&&&&&&  &",
"&&  &&***  &&&&&&    &&&&&&&&  &&&&&&      &&  &",
"&& &&**---  &&&&&     &&&&&&& &&&&&   ****   & &",
"&&&&*-    -*  &&&&&&   &&&&&&&&&&         **  &&",
"&&&*-   &  -*    &&&&&&&&&&&&&&   *  ----&&&**&&",
"*&&*       -**** &&&*           **  --    -&&*&&",
"*&**&&   & &**************&&&  &*  -        -***",
"***&&&        &&&&&&&&**&***&***  -     &    &&&",
"&&&&&&&&&&&&&        &&&&&&***   -   &  &&  &&&&",
"&&&&&&&&&&&&&&&&&  &&&&&&&&& &---&&&&     &&&&&&",
"&&&&*&&**&*&&&&&  &&&&&&&&&&  &&&&&&&&&     &&&&",
"&&&&*&*-*****&&&  &&&&&&&&&&& &&&&&&&&& &&&  &&&",
"&&&&***--*****&&   &*&&&&&&    &&&&*&&&&&&&&&&&&",
"&&&&&-----**&*&&  &**&&&&&&     &&**&&&&&&&&&&**",
"&&&&&&&&&&&&&*&* ********&***&&  &***&&&&&&&&&**",
"&&&&&&&&&&&&&***&&**&&&****&****&****&&*&*&---**",
"*****&&--&&&&&*&&&*&&&&**&&&&********&&****-**&&",
"*%***&&----&&&&&&&&&&&&&&&&&***************&&**&",
"******--**-&**&&&&&&&&&&&&&********&&*****&&&&**",
"-*--*******&**&&&*--*&&-**&*&*--**&&&***&&&---&*",
"---&*****&****&&&***--*******--*-&&&&&**&&&---&*",
"---&&&*&&-&***&&**&************&*&&&&&**&-&&&&&*",
"--&&-&*&--&*&&&&&&&*****&&&&*&&---&--&*&&--&&-&*",
"--&--&&&--&*&-&&--&&&&&&&---&&---&&--&*-------&&",
"X----&&&-&&&---&--&--&&-&---&&&--&&&&&&---------",
"XX---&&&---&---&&&&-------&****&&&&&*&&&--.-----",
"XX-X-----------&&&--.o--.-&*****------&&-..--.--",
"XX..------.---&&&&--.o.-.-&*&&&&--..--&--..--..-",
"XX...-.o--..---&&&-......--&-----...--&-..---...",
"XX.o........----&&-......--&--.--....---..--....",
"Xooo..o......-.----..o...o---.........--..-.....",
"XXXoooooooo......-o..o...o.--..........o........",
"XXXXXXooooo.........oooo.o..-..................o",
"X+++++ooooooooo....ooooo........ooo.oooo...ooooo",
"+++++++oooooo++++..+oooo......o.ooooooooooooooo+",
"++$++++++++++++++..++ooo.o...oo+o+ooo++oooooo+++",
"$$$$+++++++++++++++++ooooo.o.o++o+o++++oo++o+++$",
"$$$$++++$+$$$++++++$++ooooooo++++++$++++++++$$$$",
"$$$$++++$$$$$$$$$$$$$+++ooooo+++++$$$$$$+++$$$$$",
"$$$$+++$$$$$$$$$$$$$$$+++ooooo+++$$$$$$$$$$$$$$$",
"$$$$$++$$$$$$$$$$$$$$$+++ooooo+++$$$$$$$$$$$$$$$",
"$$$$$++$$$$$$$$$$$$$$$$++++ooo+++$$$$$$$$$$$$$$$",
"$$$$$$$$$$$$$$$$$$$$$$$++++oo+++$$$$$$$$$$$$$$$$",
"$$$$$$$$$$$$$$$$$$$$$$$+++++++++$$$$$$$$$$$$$@@@",
"@@@@$$$$$$$$$$$$$$$$$$$$+++++++$$$$$$$$$$@@@OOOO",
"OOO@@$$$$$$$$$$$$@@@@@@@$+++++$$$$$$$$$@@@OO=###",
"===O@@$$$$$$$$@@@OO==OOOO$$++$$$$$$$$$@@====##$$",
"$$===@@$$$$$@@O=========OOO@$$$$$$$$@@###$$$$$$$"
};
