/* XPM */
static char *result[] = {
/* columns rows colors chars-per-pixel */
"48 48 12 1 ",
"  c #0E3A77",
". c #C7A85F",
"X c #EBC878",
"o c #FDEE7D",
"O c #134997",
"+ c #134FA3",
"@ c #1F63C2",
"# c #2BAFFF",
"$ c #38C5F8",
"% c #31FFFF",
"& c #F7FEFE",
"* c white",
/* pixels */
"#%%##++++++++++++++$%%%%%$$$$$$+++++++++++++++++",
"+#&&++++++++++++++++$$$$$$+++++++++++++++++&&+++",
"+++++++++++++++++++++++++++++++OOOOO+++++$$$&+++",
"+++++++++++++++++++++OOOOOOOOOOOOOOOO++++$++++++",
"+++++++++&&&+++++OOOOOO+++OOOOO+++++OO++++++++++",
"++++++&&&&&%%%++O++OO&&&&&OOO+++++++++++++++++++",
"+++++&&%%%%%$%%++++O++&OOOO++++&&+++++++++++++++",
"+++&&&%%++++$$%++++++++++++++$$$$$+++++++++++%%%",
"+&&&%%@++++++$%+++++++++++++$$+++$$$+++++++%%%$$",
"+&%%$**@@+@+@@%%%%%+++++++++++++++++++++++%%$$$%",
"%&%$*+@@@@@++@$$$$$+++++++OO+++OOOO++++@@@@@%@@+",
"$$$++@     @@    +++++OOOOOOOOOO++OOOO+&+++@@@++",
"+++++   +      +++++++++++++++++++&+++++++++++++",
"+++++++++    +++++++@@@@@@++++@@++++++++OOOO++++",
"+++++&+$$++++++++++++++++@@@@@++&&&&&&+OO&+O&+++",
"++++++$++++++++++++++++++++&&&&&&%%%%&&+++++OOOO",
"+++$$$$++++++++$$&$+++++++&&%%$$$$$$%%%&++++++++",
"++++++++++++++$$+++++++++&&%$$&&++++&&%%++++++++",
"+++++OOOO++++++++++++++&&&%$#%@+++++@@&%++++++++",
"++++OO++OO++++++++OO+&&&%%$%%@++++++@@%%%+++++++",
"++OOOOOOOOOOOO++OOO++&%%$$$%@++@++++@@%$%+++++$$",
"+O&O+OOOOOOO++++++O+&%%$$@@@++++++@@++$%%+++++++",
"+&+OOOOO+++++OOOO##$$%$@@@@@+++@@+@@@$$%  ++++++",
"++OOOOOO++OOOO###$$%%$@@+++@@@@@++@@$$+   ++++++",
"++++OO+++@@O##$$$%%%$@@+@@+++@O@@+@@$$$$  ++++++",
"++++OO++@@@$@@$$$$$@@++   ++@  @@     +   $$$+++",
"+@@@@@@@@@@++@######++  +                 ++++++",
"+@++++++@@+++@@@++++O+++  O O OOO     ++++++++++",
"+++++++++@@@+++@@@+++++OO         ++++++++++++++",
"++++++++++++++++++++++++OOOO    +++++&&&++++&&$+",
"++&&++++++++++++++++++++OO+O+  +++++&&$$+++&$$++",
"+&&&$$+++++++++&&&&&&&&&++OO  ++@@$$$$++++@@@@++",
"+++++$$++++++&&&%%%%%%%%+++++++@@@@@@@@+++@++@@@",
"++++++++++++&&%%%$$$$$$%%+++++++++++++@@++++++++",
"++++++++++&&%%$$@@%%@%$%%++++++*+*++++++++++++++",
"+++++++++&&%$$@@++++++$%+++++++++*++++++++++++++",
"++++++++&&@@@@@++++++@$%+++++++**+++++++++++++++",
"++++++%%@@@+OO@+@@@+@@$%++++++++++OO++++++++++++",
"++++%%%@@+OOO@@@      $$$$$$++++OOO+++++++&&&&++",
"$$$$$$$@++++           +++++*+O*OO++++++&&&&&%%%",
"++++++++++         * ++++OO***OO++++++&&&%%%%$$$",
"++++++++++++ ** *X*X* ++O++****+++++&&&%%%++@+@$",
"+++++OOO* * X**XXXXX*++O***XXXX*++&&&%%$$+++++@+",
"+*+*+ ** *XX*XXXXXXX****X*XXXXXX++*%%$$+@+++++@*",
"*+   **.XX.XXXXXX.XXXXXX.XXXXXXX*XXX$X*@**@*****",
"***XX*X..XoooX.XXXXXXXXXX.X...X*X.XXXXXXXXXXXXoo",
".XXXXXXoooo..o.o...o.ooo..oooo.oXXXXXX.XXX.XXXoo",
"ooo.o.o.ooooooooooooooooooooooooooooXXXXXXXooooo"
};
